<svg xmlns="http://www.w3.org/2000/svg" width="1200" height="520" viewBox="0 0 1200 520">
<defs>
<linearGradient id="bg" x1="0" y1="0" x2="1200" y2="520"><stop stop-color="#050505"/><stop offset=".52" stop-color="#0c0708"/><stop offset="1" stop-color="#040404"/></linearGradient>
<pattern id="scan" width="4" height="4" patternUnits="userSpaceOnUse"><rect width="4" height="1" fill="#eadfd6" opacity=".025"/></pattern>
<filter id="softGlow" x="-40%" y="-40%" width="180%" height="180%"><feGaussianBlur stdDeviation="3" result="b"/><feMerge><feMergeNode in="b"/><feMergeNode in="SourceGraphic"/></feMerge></filter>
<clipPath id="screenClip"><rect x="20" y="20" width="1160" height="480" rx="22"/></clipPath>
<g id="kingLogo"><path d="M 247,206 L 245,206 L 245,208 Z M 495,205 L 494,207 L 496,209 L 497,207 Z M 404,205 L 404,208 L 405,208 L 406,206 Z M 85,205 L 84,207 L 86,209 L 88,206 Z M 262,203 L 261,208 L 263,209 L 265,207 Z M 620,198 L 621,203 L 623,203 L 625,205 L 625,208 L 627,211 L 681,211 L 686,210 L 688,206 L 629,206 L 628,205 L 630,202 L 653,202 L 654,203 L 655,202 L 657,203 L 658,202 L 687,202 L 686,198 Z M 540,198 L 539,197 L 536,198 L 506,198 L 506,210 L 507,211 L 539,211 L 540,209 L 539,206 L 511,207 L 509,204 L 511,202 L 534,202 L 536,204 L 540,201 Z M 448,199 L 442,197 L 414,198 L 413,199 L 414,202 L 442,202 L 444,205 L 443,206 L 414,206 L 413,210 L 414,211 L 446,211 L 448,207 L 447,203 Z M 271,200 L 273,203 L 274,202 L 337,202 L 338,203 L 360,202 L 362,204 L 361,206 L 335,206 L 334,207 L 326,207 L 325,206 L 272,206 L 271,207 L 272,211 L 365,211 L 368,206 L 366,203 L 367,198 L 363,197 L 358,198 L 347,198 L 346,197 L 339,197 L 338,198 L 288,198 L 284,197 L 283,198 L 273,198 Z M 130,199 L 128,197 L 95,198 L 95,210 L 96,211 L 129,211 L 131,206 L 129,203 Z M 595,191 L 593,191 L 594,193 Z M 301,189 L 304,194 L 334,194 L 335,191 L 334,189 Z M 362,189 L 361,188 L 355,188 L 354,189 L 345,189 L 344,190 L 348,194 L 359,194 Z M 95,190 L 95,192 L 97,194 L 121,194 L 122,193 L 124,194 L 125,193 L 125,189 L 101,189 L 100,188 Z M 713,187 L 711,190 L 714,189 Z M 262,186 L 262,187 L 265,187 L 265,186 Z M 177,186 L 177,189 L 178,189 L 178,186 Z M 83,182 L 93,183 L 96,186 L 100,185 L 99,182 Z M 494,185 L 494,190 L 498,189 L 502,194 L 529,194 L 530,193 L 539,193 L 540,191 L 539,188 L 538,189 L 505,189 L 503,187 L 506,185 L 535,185 L 537,186 L 538,185 L 535,181 L 504,181 L 501,182 L 500,186 L 497,188 Z M 270,185 L 272,193 L 282,194 L 284,192 L 295,193 L 297,191 L 297,189 L 283,189 L 282,188 L 273,188 L 272,187 L 274,185 L 279,186 L 280,185 L 297,185 L 298,184 L 301,185 L 366,185 L 368,186 L 368,182 L 367,181 L 272,181 Z M 184,183 L 184,185 L 186,187 L 185,194 L 223,194 L 224,195 L 222,198 L 203,198 L 202,199 L 203,200 L 202,210 L 203,211 L 236,211 L 238,207 L 236,204 L 237,198 L 226,198 L 224,196 L 225,193 L 225,182 L 224,181 L 194,181 Z M 707,190 L 704,187 L 705,184 L 704,181 L 680,181 L 679,180 L 670,180 L 669,181 L 602,181 L 601,183 L 603,187 L 601,191 L 603,194 L 652,194 L 655,191 L 654,188 L 625,189 L 623,187 L 625,185 L 636,185 L 637,186 L 639,185 L 698,185 L 702,187 L 699,189 L 666,189 L 665,190 L 666,194 L 702,194 L 703,193 L 705,194 L 705,192 Z M 447,188 L 446,186 L 444,186 L 443,189 L 436,188 L 435,187 L 437,185 L 443,184 L 440,181 L 434,180 L 430,183 L 424,183 L 423,184 L 424,185 L 432,185 L 435,187 L 434,188 L 423,189 L 422,190 L 414,189 L 414,193 L 416,194 L 444,194 L 446,193 Z M 408,182 L 410,182 L 413,185 L 421,184 L 420,181 L 418,180 Z M 106,184 L 107,185 L 126,185 L 129,182 L 126,180 L 115,180 L 113,182 L 109,182 Z M 676,167 L 674,170 L 676,175 Z M 682,166 L 682,168 L 684,168 L 686,170 L 682,175 L 683,177 L 715,177 L 717,176 L 718,172 L 714,170 L 718,168 L 719,166 L 718,164 L 684,164 Z M 598,166 L 599,177 L 600,178 L 611,178 L 612,177 L 631,177 L 632,178 L 634,176 L 633,171 L 634,168 L 633,166 L 628,164 L 623,166 L 616,164 L 600,164 Z M 487,176 L 490,178 L 534,178 L 540,172 L 494,173 L 491,171 L 494,169 L 519,169 L 520,168 L 539,169 L 541,168 L 541,165 L 540,164 L 488,164 L 487,165 L 488,169 Z M 413,165 L 413,176 L 414,178 L 443,177 L 447,174 L 446,170 L 447,165 L 446,164 L 414,164 Z M 301,165 L 301,168 L 306,169 L 310,168 L 329,168 L 334,171 L 332,173 L 301,172 L 301,176 L 303,178 L 334,178 L 335,177 L 335,164 L 302,164 Z M 174,165 L 175,169 L 174,174 L 176,177 L 197,177 L 198,178 L 216,178 L 217,177 L 217,174 L 213,173 L 213,169 L 216,168 L 217,166 L 213,164 L 175,164 Z M 96,164 L 96,168 L 100,170 L 99,172 L 96,172 L 96,177 L 97,178 L 98,177 L 112,177 L 113,178 L 128,178 L 130,174 L 129,171 L 130,165 L 129,164 Z M 157,152 L 155,153 L 157,158 L 158,156 Z M 208,151 L 209,156 L 210,156 L 210,152 Z M 686,148 L 686,160 L 687,161 L 712,161 L 713,160 L 717,161 L 718,160 L 718,154 L 714,154 L 711,157 L 710,156 L 689,156 L 688,155 L 689,152 L 709,152 L 711,150 L 709,147 L 687,147 Z M 583,149 L 583,158 L 584,160 L 589,161 L 618,160 L 620,157 L 620,155 L 618,154 L 619,150 L 617,147 L 584,147 Z M 479,155 L 480,160 L 490,160 L 491,161 L 496,161 L 497,160 L 507,160 L 508,161 L 533,160 L 536,161 L 537,160 L 537,153 L 540,150 L 540,148 L 539,147 L 535,148 L 534,147 L 480,147 L 479,148 Z M 413,160 L 443,160 L 443,156 L 445,154 L 446,148 L 441,147 L 434,147 L 433,148 L 431,147 L 414,147 L 413,148 Z M 301,148 L 301,152 L 303,153 L 301,160 L 332,160 L 333,161 L 335,160 L 329,156 L 307,156 L 306,155 L 307,152 L 329,152 L 333,148 L 326,148 L 325,147 Z M 166,148 L 166,160 L 168,161 L 173,160 L 195,160 L 200,161 L 201,157 L 200,156 L 170,156 L 169,155 L 170,152 L 200,152 L 201,151 L 200,147 Z M 95,148 L 95,160 L 121,160 L 122,161 L 125,161 L 125,156 L 101,156 L 100,153 L 101,152 L 125,152 L 128,149 L 127,147 L 96,147 Z M 727,143 L 732,144 Z M 550,143 L 547,144 L 549,146 L 551,144 Z M 735,143 L 748,144 L 748,143 L 738,143 L 737,142 Z M 538,139 L 536,144 L 542,144 L 540,142 L 540,139 Z M 647,137 L 647,138 L 650,138 L 650,137 Z M 655,141 L 656,144 L 687,144 L 688,143 L 696,144 L 697,143 L 718,143 L 719,142 L 718,139 L 701,139 L 699,137 L 701,135 L 718,135 L 718,131 L 712,131 L 711,130 L 686,130 L 685,131 L 667,131 L 666,132 L 657,131 Z M 582,131 L 582,141 L 584,143 L 588,144 L 596,144 L 597,143 L 615,144 L 619,140 L 619,138 L 613,140 L 610,137 L 613,134 L 619,136 L 619,134 L 616,131 L 610,131 L 609,130 L 586,130 Z M 468,131 L 468,133 L 472,137 L 471,141 L 473,144 L 494,144 L 502,142 L 506,143 L 531,143 L 531,138 L 528,139 L 515,139 L 513,137 L 515,135 L 528,135 L 531,136 L 533,134 L 538,134 L 537,130 L 512,130 L 509,134 L 505,134 L 501,130 L 499,131 L 494,131 L 493,130 L 477,130 L 474,131 L 469,130 Z M 413,141 L 416,143 L 440,143 L 444,138 L 444,135 L 446,132 L 441,130 L 440,131 L 414,130 L 413,131 Z M 301,131 L 301,143 L 303,144 L 304,143 L 327,143 L 328,144 L 331,143 L 334,144 L 335,143 L 335,139 L 332,137 L 335,134 L 334,130 L 332,131 L 325,131 L 324,130 L 308,130 L 307,131 L 303,130 Z M 149,131 L 149,140 L 157,144 L 167,143 L 168,144 L 172,143 L 183,143 L 184,144 L 192,143 L 192,132 L 190,130 L 185,130 L 184,131 L 180,130 L 175,131 L 150,130 Z M 95,132 L 95,142 L 96,143 L 129,144 L 136,139 L 137,142 L 139,143 L 136,137 L 137,135 L 136,130 L 130,130 L 129,131 L 101,130 Z M 650,117 L 647,122 L 650,122 L 649,119 Z M 655,114 L 656,118 L 656,125 L 655,126 L 656,127 L 716,127 L 718,126 L 718,123 L 713,122 L 708,123 L 706,122 L 685,122 L 683,120 L 685,118 L 710,118 L 711,119 L 712,118 L 726,118 L 728,121 L 729,120 L 727,115 L 724,118 L 722,118 L 718,113 L 656,113 Z M 505,121 L 512,127 L 513,126 L 515,127 L 532,127 L 533,126 L 538,126 L 540,122 L 540,116 L 538,114 L 535,116 L 532,116 L 529,113 L 512,113 L 508,114 L 507,118 L 520,118 L 521,120 L 517,123 L 513,123 L 507,120 Z M 455,118 L 456,123 L 459,120 L 466,127 L 494,127 L 495,126 L 494,125 L 495,120 L 493,113 L 490,114 L 464,113 L 462,114 L 463,118 L 461,120 L 458,120 Z M 414,115 L 413,118 L 413,126 L 414,127 L 440,127 L 441,128 L 443,121 L 445,119 L 442,117 L 437,116 L 436,114 L 431,114 L 430,113 L 417,113 Z M 335,118 L 334,117 L 328,117 L 324,113 L 312,114 L 310,116 L 301,118 L 301,126 L 302,127 L 303,126 L 334,127 L 335,123 L 332,121 Z M 284,113 L 284,114 L 287,113 L 295,114 L 295,113 Z M 95,126 L 96,127 L 178,127 L 179,126 L 178,123 L 181,120 L 179,118 L 180,113 L 168,113 L 165,117 L 162,117 L 158,114 L 115,113 L 110,118 L 104,118 L 103,119 L 97,118 L 95,120 Z M 79,114 L 100,115 L 99,113 L 90,113 L 89,114 L 81,114 L 80,113 Z M 547,108 L 547,109 L 549,109 L 549,108 Z M 496,101 L 495,107 L 496,107 Z M 450,97 L 455,103 L 455,110 L 482,110 L 484,111 L 487,105 L 485,106 L 458,106 L 457,105 L 458,102 L 486,102 L 484,97 Z M 301,98 L 301,110 L 332,110 L 334,108 L 333,106 L 309,106 L 306,104 L 307,102 L 332,102 L 335,103 L 335,98 L 334,97 L 302,97 Z M 95,110 L 97,111 L 108,110 L 109,109 L 113,110 L 163,110 L 166,108 L 172,100 L 166,97 L 161,97 L 160,98 L 152,98 L 151,97 L 101,97 L 99,98 L 96,97 L 95,98 L 96,103 Z M 178,91 L 175,91 L 174,94 Z M 617,89 L 614,90 L 609,90 L 608,89 L 584,90 L 583,91 L 584,94 L 609,94 L 611,93 L 614,94 L 615,96 L 612,98 L 609,97 L 584,97 L 583,99 L 583,109 L 584,110 L 603,110 L 605,112 L 600,114 L 591,114 L 586,118 L 581,118 L 581,126 L 582,127 L 614,127 L 618,124 L 618,114 L 609,115 L 605,112 L 608,110 L 615,110 L 616,111 L 618,110 L 618,106 L 589,106 L 587,104 L 588,102 L 618,102 L 618,90 Z M 507,89 L 506,92 L 507,94 L 536,94 L 537,95 L 535,97 L 508,97 L 506,99 L 506,108 L 507,110 L 533,110 L 537,108 L 536,106 L 511,106 L 510,103 L 511,102 L 538,102 L 539,101 L 538,95 L 540,94 L 539,89 L 534,90 L 510,90 Z M 301,91 L 302,94 L 334,94 L 334,89 L 329,90 L 304,90 L 303,89 Z M 138,94 L 139,95 L 140,94 L 166,94 L 166,91 L 164,89 L 140,89 Z M 95,91 L 96,94 L 128,94 L 128,89 L 123,89 L 122,90 L 96,89 Z M 739,86 L 737,84 L 735,86 L 724,86 Z M 686,83 L 687,87 L 718,86 L 719,85 L 718,82 L 694,81 Z M 301,81 L 302,86 L 333,86 L 332,81 L 306,81 L 305,80 Z M 686,73 L 687,78 L 689,77 L 690,78 L 718,78 L 718,73 Z M 584,74 L 584,85 L 585,86 L 619,86 L 618,81 L 617,82 L 597,82 L 587,80 L 588,78 L 619,78 L 619,73 L 585,73 Z M 506,73 L 506,86 L 539,86 L 540,85 L 539,82 L 517,82 L 516,81 L 509,82 L 507,80 L 508,78 L 540,78 L 540,73 Z M 412,75 L 413,77 L 413,83 L 412,84 L 414,87 L 413,89 L 414,94 L 444,94 L 445,95 L 441,98 L 440,97 L 414,97 L 413,98 L 413,110 L 435,110 L 436,111 L 442,110 L 446,108 L 446,106 L 443,105 L 419,106 L 417,104 L 419,102 L 447,102 L 448,99 L 447,95 L 448,94 L 482,94 L 482,89 L 477,90 L 474,89 L 467,89 L 466,90 L 444,90 L 443,89 L 421,90 L 418,88 L 419,86 L 477,86 L 476,74 L 475,73 L 413,73 Z M 301,74 L 301,78 L 333,78 L 334,76 L 334,73 L 302,73 Z M 195,73 L 196,82 L 197,82 L 200,79 L 197,76 L 197,73 Z M 149,78 L 149,86 L 151,87 L 152,86 L 186,87 L 191,83 L 189,81 L 158,81 L 157,82 L 154,80 L 155,78 L 190,78 L 190,73 L 155,73 Z M 95,73 L 95,86 L 128,86 L 129,85 L 129,74 L 128,73 Z M 209,61 L 208,64 L 210,62 Z M 599,68 L 600,70 L 629,70 L 630,67 L 634,65 L 631,65 L 629,63 L 634,60 L 634,57 L 633,56 L 601,56 L 600,57 L 600,62 L 618,62 L 622,61 L 628,63 L 626,65 L 600,65 Z M 506,57 L 507,70 L 539,70 L 539,61 L 535,61 L 529,56 Z M 413,57 L 412,64 L 414,70 L 465,70 L 466,60 L 464,56 L 462,57 L 459,56 L 414,56 Z M 301,57 L 301,64 L 302,65 L 301,68 L 303,70 L 333,70 L 335,68 L 335,65 L 306,65 L 305,64 L 308,61 L 313,61 L 314,62 L 330,61 L 334,62 L 335,61 L 334,56 L 306,56 Z M 166,57 L 165,60 L 167,70 L 200,70 L 202,65 L 201,64 L 200,65 L 170,65 L 169,64 L 170,61 L 201,62 L 201,57 L 200,56 Z M 404,53 L 407,52 L 404,52 Z M 65,52 L 66,53 L 72,53 L 73,52 Z M 556,51 L 559,52 L 559,51 Z M 301,49 L 301,52 L 306,54 L 333,54 L 335,51 L 335,49 L 330,49 L 329,48 L 303,48 Z M 271,48 L 271,53 L 273,54 L 295,54 L 297,52 L 296,48 Z M 79,52 L 80,53 L 100,53 L 102,51 L 112,51 L 114,53 L 120,53 L 123,55 L 122,56 L 114,56 L 110,59 L 104,59 L 103,60 L 101,60 L 97,56 L 95,57 L 95,68 L 96,70 L 124,70 L 125,61 L 129,58 L 128,55 L 130,53 L 129,49 L 108,48 L 107,47 L 96,47 L 94,52 Z M 267,46 L 265,45 L 263,47 L 263,49 Z M 506,41 L 507,43 L 506,44 L 506,52 L 507,53 L 532,53 L 533,52 L 538,52 L 540,50 L 539,47 L 538,48 L 511,48 L 510,47 L 512,44 L 539,45 L 540,44 L 539,40 L 507,40 Z M 413,41 L 413,52 L 455,53 L 456,54 L 459,52 L 457,48 L 443,48 L 441,49 L 440,48 L 420,48 L 419,47 L 420,45 L 439,45 L 440,44 L 454,45 L 455,46 L 457,44 L 456,40 L 451,41 L 447,40 L 414,40 Z M 172,46 L 172,47 L 175,48 L 175,52 L 177,54 L 183,54 L 184,53 L 217,54 L 219,52 L 219,50 L 221,49 L 222,44 L 219,40 L 176,40 L 175,43 Z M 599,41 L 600,43 L 607,45 L 607,47 L 605,49 L 600,51 L 602,54 L 603,53 L 623,53 L 624,54 L 672,53 L 674,55 L 673,56 L 673,61 L 670,65 L 674,68 L 677,64 L 676,62 L 677,60 L 681,60 L 684,62 L 705,61 L 709,62 L 710,64 L 709,65 L 684,64 L 682,65 L 682,68 L 684,70 L 714,70 L 712,62 L 716,58 L 714,56 L 712,57 L 702,57 L 701,56 L 677,56 L 676,55 L 677,53 L 703,53 L 705,52 L 706,46 L 704,44 L 703,40 L 606,40 L 605,39 L 600,39 Z M 367,48 L 366,40 L 364,39 L 363,40 L 272,40 L 271,44 L 298,44 L 300,43 L 303,45 L 359,44 L 364,47 L 363,48 L 342,48 L 340,49 L 343,54 L 351,54 L 352,53 L 364,54 L 366,52 Z M 129,41 L 128,39 L 125,40 L 96,40 L 95,44 L 96,45 L 128,44 Z M 408,33 L 406,32 L 405,34 Z M 549,25 L 549,27 L 551,26 Z M 372,26 L 372,27 L 377,28 L 375,25 Z M 619,29 L 621,33 L 621,36 L 682,36 L 684,34 L 687,34 L 690,31 L 694,32 L 694,31 L 690,31 L 687,27 L 683,26 L 681,23 L 628,23 L 626,26 L 621,27 Z M 505,29 L 506,33 L 513,33 L 515,36 L 534,36 L 538,37 L 540,36 L 540,29 L 543,26 L 539,23 L 507,23 Z M 413,23 L 413,33 L 419,36 L 433,35 L 436,37 L 443,37 L 448,32 L 448,25 L 446,23 Z M 270,34 L 271,36 L 276,37 L 282,36 L 285,34 L 287,34 L 288,36 L 364,36 L 366,34 L 366,30 L 368,26 L 366,23 L 272,23 L 270,27 L 271,29 Z M 196,28 L 197,36 L 233,36 L 236,33 L 236,23 L 200,23 Z M 95,24 L 95,33 L 100,33 L 104,37 L 105,36 L 130,36 L 129,24 L 128,23 L 96,23 Z"/></g>
</defs>
<rect x="14" y="14" width="1172" height="492" rx="24" fill="url(#bg)" stroke="#4d0d14" stroke-width="2"/><rect x="20" y="20" width="1160" height="480" rx="20" fill="none" stroke="#7a111c" stroke-width="1.5"/><rect x="26" y="26" width="1148" height="468" rx="17" fill="none" stroke="#2f080d"/><rect x="21" y="21" width="1158" height="478" rx="19" fill="url(#scan)"/>
<g stroke="#651019" opacity=".65"><path d="M20 95H180M1020 95H1180M20 430H155M1040 430H1180M20 130H72V112H126M1180 130H1128V112H1074M20 395H84V414H146M1180 395H1116V414H1054"/></g>
<line x1="20" y1="82" x2="1180" y2="82" stroke="#5c0d15"/><circle cx="52" cy="48" r="9" fill="#c73440"/><circle cx="82" cy="48" r="9" fill="#a66f3d"/><circle cx="112" cy="48" r="9" fill="#31523a"/><text x="600" y="56" text-anchor="middle" fill="#a69b93" font-family="Menlo,Monaco,Consolas,monospace" font-size="18">root@king — profile</text>
<g font-family="Menlo,Monaco,Consolas,monospace"><text x="62" y="132" fill="#a91f2b" font-size="23">king@github:~$ ./boot_profile.sh</text><text x="62" y="184" fill="#d9cfc7" font-size="20"><tspan fill="#a91f2b">[ OK ]</tspan><tspan dx="16">identity loaded</tspan></text><text x="62" y="218" fill="#d9cfc7" font-size="20"><tspan fill="#a91f2b">[ OK ]</tspan><tspan dx="16">repositories mounted</tspan></text><text x="62" y="252" fill="#d9cfc7" font-size="20"><tspan fill="#a91f2b">[ OK ]</tspan><tspan dx="16">curiosity daemon running</tspan></text>
<g fill="#efe5dc" transform="translate(275 245) scale(.798526 .798319)"><use href="#kingLogo"/></g>
<g fill="#7a111c" opacity="0" transform="translate(275 245) scale(.798526 .798319)"><use href="#kingLogo"/><animate attributeName="opacity" values="0;0;.75;0;.45;0" keyTimes="0;.8;.83;.86;.9;1" dur="4.2s" repeatCount="indefinite"/><animateTransform attributeName="transform" type="translate" values="0 0;0 0;14 0;-10 0;0 0" keyTimes="0;.8;.83;.86;1" dur="4.2s" repeatCount="indefinite" additive="sum"/></g>
<g opacity="0"><rect x="320" y="300" width="570" height="5" fill="#efe5dc"/><rect x="370" y="342" width="470" height="4" fill="#7a111c"/><rect x="430" y="385" width="350" height="3" fill="#efe5dc"/><animate attributeName="opacity" values="0;0;.9;0;.5;0" keyTimes="0;.81;.83;.86;.9;1" dur="3.8s" repeatCount="indefinite"/><animateTransform attributeName="transform" type="translate" values="0 0;0 0;20 0;-14 0;0 0" keyTimes="0;.81;.83;.86;1" dur="3.8s" repeatCount="indefinite"/></g>
<text x="600" y="452" text-anchor="middle" fill="#d6cbc2" font-size="18" letter-spacing="1.5">WRITING CODE. <tspan fill="#9d1c27">BREAKING SYSTEMS.</tspan> FIXING THINGS.</text><text x="62" y="485" fill="#a91f2b" font-size="20">ACCESS GRANTED</text><rect x="245" y="465" width="12" height="23" fill="#8f1721" filter="url(#softGlow)"><animate attributeName="opacity" values="1;0;1" dur=".95s" repeatCount="indefinite"/></rect><text x="1030" y="485" fill="#b8aaa0" font-size="17">SYSTEM ONLINE</text></g>
<rect x="22" y="86" width="1156" height="30" fill="#fff" opacity="0"><animate attributeName="y" values="86;458" dur="5.6s" repeatCount="indefinite"/><animate attributeName="opacity" values="0;.022;0" dur="5.6s" repeatCount="indefinite"/></rect>
</svg>